<svg class="main-icons" xmlns="http://www.w3.org/2000/svg" xmlns:graph="http://ns.adobe.com/Graphs/1.0/" xmlns:i="http://ns.adobe.com/AdobeIllustrator/10.0/" xmlns:x="http://ns.adobe.com/Extensibility/1.0/" xmlns:xlink="http://www.w3.org/1999/xlink" x="0px"
			 y="0px" enable-background="new 0 0 64 64" version="1.1" viewBox="0 0 64 64" xml:space="preserve">
                    <g>
                        <path d="M56,11h-9V8c0-0.552-0.447-1-1-1s-1,0.448-1,1v3H19V8c0-0.552-0.448-1-1-1s-1,0.448-1,1v3H8c-0.552,0-1,0.448-1,1v44   c0,0.553,0.448,1,1,1h48c0.553,0,1-0.447,1-1V12C57,11.448,56.553,11,56,11z M17,13v3c0,0.552,0.448,1,1,1s1-0.448,1-1v-3h26v3   c0,0.552,0.447,1,1,1s1-0.448,1-1v-3h8v10H9V13H17z M25,39V25h14v14H25z M39,41v14H25V41H39z M23,39H9V25h14V39z M41,25h14v14H41   V25z M9,41h14v14H9V41z M41,55V41h14v14H41z"
                        />
                    </g>
                </svg>