<svg xmlns="http://www.w3.org/2000/svg" xmlns:xlink="http://www.w3.org/1999/xlink" x="0px" y="0px" enable-background="new 0 0 100 100" version="1.1" viewBox="0 0 100 100" xml:space="preserve">
                        <g>
                            <g>
                                <path d="M50,37.3c-10.3,0-18.7,8.4-18.7,18.7S39.7,74.7,50,74.7S68.7,66.3,68.7,56S60.3,37.3,50,37.3z M50,70.7    c-8.1,0-14.7-6.6-14.7-14.7S41.9,41.3,50,41.3c8.1,0,14.7,6.6,14.7,14.7S58.1,70.7,50,70.7z"
                                />
                                <path d="M50,44.7c-6.2,0-11.3,5.1-11.3,11.3c0,1.1,0.9,2,2,2s2-0.9,2-2c0-4,3.3-7.3,7.3-7.3c1.1,0,2-0.9,2-2S51.1,44.7,50,44.7z"
                                />
                                <path d="M87.5,25.7H72.4L71,19.8c-0.9-3.6-4.1-6.1-7.8-6.1H36.8c-3.7,0-6.9,2.5-7.8,6.1l-1.4,5.9H12.5c-3.5,0-6.3,2.8-6.3,6.3    v48.2c0,3.5,2.8,6.3,6.3,6.3h75c3.5,0,6.3-2.8,6.3-6.3V31.9C93.8,28.5,91,25.7,87.5,25.7z M89.8,80.1c0,1.2-1,2.3-2.3,2.3h-75    c-1.2,0-2.3-1-2.3-2.3V31.9c0-1.2,1-2.3,2.3-2.3h16.6c0.9,0,1.7-0.6,1.9-1.5l1.8-7.4c0.4-1.8,2-3.1,3.9-3.1h26.5    c1.9,0,3.5,1.3,3.9,3.1l1.8,7.4c0.2,0.9,1,1.5,1.9,1.5h16.6c1.2,0,2.3,1,2.3,2.3V80.1z"
                                />
                                <path d="M82.7,35H79c-2.5,0-4.6,2.1-4.6,4.6v3.8c0,2.5,2.1,4.6,4.6,4.6h3.8c2.5,0,4.6-2.1,4.6-4.6v-3.8C87.3,37.1,85.3,35,82.7,35    z M83.3,43.4c0,0.3-0.3,0.6-0.6,0.6H79c-0.3,0-0.6-0.3-0.6-0.6v-3.8c0-0.3,0.3-0.6,0.6-0.6h3.8c0.3,0,0.6,0.3,0.6,0.6V43.4z"
                                />
                            </g>
                        </g>
                    </svg>