<svg class="main-icons" xmlns="http://www.w3.org/2000/svg" xmlns:graph="http://ns.adobe.com/Graphs/1.0/" xmlns:i="http://ns.adobe.com/AdobeIllustrator/10.0/" xmlns:x="http://ns.adobe.com/Extensibility/1.0/" xmlns:xlink="http://www.w3.org/1999/xlink" x="0px"
			 y="0px" enable-background="new 0 0 64 64" version="1.1" viewBox="0 0 64 64" xml:space="preserve">
                    <g>
                        <g>
                            <path d="M56,11h-9V8c0-0.552-0.447-1-1-1s-1,0.448-1,1v3H19V8c0-0.552-0.448-1-1-1s-1,0.448-1,1v3H8c-0.552,0-1,0.448-1,1v44    c0,0.553,0.448,1,1,1h48c0.553,0,1-0.447,1-1V12C57,11.448,56.553,11,56,11z M17,13v3c0,0.552,0.448,1,1,1s1-0.448,1-1v-3h26v3    c0,0.552,0.447,1,1,1s1-0.448,1-1v-3h8v10H9V13H17z M9,55V25h46v30H9z"
                            />
                            <path d="M39.231,33.359L29.807,44.67l-5.252-3.502c-0.46-0.307-1.08-0.182-1.387,0.277c-0.306,0.46-0.182,1.08,0.277,1.387l6,4    C29.615,46.945,29.808,47,30,47c0.288,0,0.572-0.124,0.769-0.359l10-12c0.354-0.425,0.296-1.056-0.128-1.409    C40.215,32.879,39.586,32.936,39.231,33.359z"
                            />
                        </g>
                    </g>
                </svg>